# xmcd
#
# Track frame offsets:
#	150
#	14297
#	36010
#	53884
#	83175
#	139630
#	165115
#	195307
#	221955
#	236192
#	252079
#	274352
#	295818
#	309295
#	327215
#
# Disc length: 4623 seconds
#
# Revision: 0
# Processed by: cddbd v1.5.2PL0 Copyright (c) Steve Scherf et al.
# Submitted via: dBpowerAMP V4.0
#
DISCID=ce120d0f
DTITLE=Various Artist - Spinin The Blues
DYEAR=1900
DGENRE=
TTITLE0=Terri Gibbs_Hide Love in My Heart
TTITLE1=Keb' Mo'_Henry (acoustic)
TTITLE2=Willie Porter_Jesus on the Grille
TTITLE3=Albert King and John Lee Hooker_When You're Down
TTITLE4=Boz Skaggs_Somebody Loan me a Dime
TTITLE5=John Lee Hooker and Carlos Santana_The Healer
TTITLE6=John Lee Hooker and Van Morrison_I Cover the Waterfront
TTITLE7=Santana_Blues Latino
TTITLE8=Susan Tedeschi& Etta James_Stormy Weather
TTITLE9=Keb Mo_What A Wonderful World
TTITLE10=John Lee Hooker and Ali D'Oro_Lay Down With AN Angel
TTITLE11=John Lee Hooker and Carlos Santana_Chill Out
TTITLE12=David Allen Coe_Funeral Parlor Blues
TTITLE13=Willy Porter_Unconditonal
TTITLE14=Robert Cray_It's Because of Me
EXTD=
EXTT0=
EXTT1=
EXTT2=
EXTT3=
EXTT4=
EXTT5=
EXTT6=
EXTT7=
EXTT8=
EXTT9=
EXTT10=
EXTT11=
EXTT12=
EXTT13=
EXTT14=
PLAYORDER=
